<svg xmlns="http://www.w3.org/2000/svg" width="7.555" height="15.744" viewBox="0 0 7.555 15.744">
  <g id="more" transform="translate(7.305 0.25) rotate(90)">
    <g id="Group_2718" data-name="Group 2718" transform="translate(10.763)">
      <g id="Group_2717" data-name="Group 2717" transform="translate(0 0)">
        <path id="Path_8640" data-name="Path 8640" d="M2.241,0C1.005,0,0,1.583,0,3.528S1.005,7.055,2.241,7.055,4.481,5.473,4.481,3.528,3.476,0,2.241,0Zm0,5.321c-.628,0-1.139-.8-1.139-1.793s.511-1.793,1.139-1.793,1.139.8,1.139,1.793S2.869,5.321,2.241,5.321Z" fill="#858585" stroke="#fff" stroke-width="0.5"/>
      </g>
    </g>
    <g id="Group_2720" data-name="Group 2720" transform="translate(5.381)">
      <g id="Group_2719" data-name="Group 2719" transform="translate(0 0)">
        <path id="Path_8641" data-name="Path 8641" d="M2.241,0C1.005,0,0,1.583,0,3.528S1.005,7.055,2.241,7.055,4.481,5.473,4.481,3.528,3.476,0,2.241,0Zm0,5.321c-.628,0-1.139-.8-1.139-1.793s.511-1.793,1.139-1.793,1.139.8,1.139,1.793S2.869,5.321,2.241,5.321Z" fill="#858585" stroke="#fff" stroke-width="0.5"/>
      </g>
    </g>
    <g id="Group_2722" data-name="Group 2722">
      <g id="Group_2721" data-name="Group 2721" transform="translate(0 0)">
        <path id="Path_8642" data-name="Path 8642" d="M2.241,0C1.005,0,0,1.583,0,3.528S1.005,7.055,2.241,7.055,4.481,5.473,4.481,3.528,3.476,0,2.241,0Zm0,5.321c-.628,0-1.139-.8-1.139-1.793s.511-1.793,1.139-1.793,1.139.8,1.139,1.793S2.868,5.321,2.241,5.321Z" fill="#858585" stroke="#fff" stroke-width="0.5"/>
      </g>
    </g>
  </g>
</svg>
